<svg width="16" height="17" viewBox="0 0 16 17" fill="none" xmlns="http://www.w3.org/2000/svg">
<path d="M4.78787 8.84924C5.1784 8.45872 5.1784 7.82555 4.78787 7.43503L0.383528 3.03069C-0.00699623 2.64016 -0.00699678 2.007 0.383528 1.61647L1.47433 0.525665C1.86486 0.135141 2.49802 0.135141 2.88855 0.525665L7.29289 4.93001C7.68342 5.32053 8.31658 5.32053 8.70711 4.93001L13.1115 0.525664C13.502 0.13514 14.1351 0.13514 14.5257 0.525664L15.6165 1.61647C16.007 2.007 16.007 2.64016 15.6165 3.03069L11.2121 7.43503C10.8216 7.82555 10.8216 8.45872 11.2121 8.84924L15.6165 13.2536C16.007 13.6441 16.007 14.2773 15.6165 14.6678L14.5257 15.7586C14.1351 16.1491 13.502 16.1491 13.1115 15.7586L8.70711 11.3543C8.31658 10.9637 7.68342 10.9637 7.29289 11.3543L2.88855 15.7586C2.49802 16.1491 1.86486 16.1491 1.47433 15.7586L0.383528 14.6678C-0.0069961 14.2773 -0.0069961 13.6441 0.383528 13.2536L4.78787 8.84924Z" fill="#1C1C1C"/>
</svg>
