<svg width="306" height="34" viewBox="0 0 306 34" fill="none" xmlns="http://www.w3.org/2000/svg">
<circle cx="16.0136" cy="16.362" r="15.9313" fill="#0D2EC8"/>
<path d="M2.20325 16.3397C2.20325 23.942 8.38894 30.1277 15.9912 30.1277C23.5935 30.1277 29.7792 23.942 29.7792 16.3397C29.7792 8.73745 23.5935 2.55176 15.9912 2.55176C8.38894 2.55176 2.20325 8.73745 2.20325 16.3397ZM28.7817 16.3397C28.7817 17.1278 28.7042 17.8976 28.5676 18.6491L26.2127 16.2942L26.2172 16.2896L26.2127 16.2851L28.5539 13.9438C28.7042 14.7182 28.7817 15.5198 28.7817 16.3397ZM15.9912 29.1302C15.1713 29.1302 14.3697 29.0482 13.5953 28.9024L14.8343 27.668V27.6726L15.9594 26.5475L17.9954 28.5836L18.328 28.9161C17.5673 29.0528 16.7884 29.1302 15.9912 29.1302ZM3.19624 16.3397C3.19624 15.5426 3.27367 14.7637 3.41488 14.0076L3.66085 14.2536L5.69693 16.2896L3.66085 18.3257L3.40121 18.5854C3.26912 17.8566 3.19624 17.105 3.19624 16.3397ZM24.8097 16.2896L15.8273 25.2721V21.373L20.9152 16.2851L15.8181 11.1971V7.39828L24.8097 16.2896ZM19.5031 16.2851L15.7088 20.0794L11.9145 16.2851L15.7088 12.4908L19.5031 16.2851ZM7.60092 25.345L11.1766 21.7693L13.2127 23.8054L14.7523 25.345H7.60092ZM20.733 21.7693L22.7691 23.8008L24.3087 25.3404H17.1619L20.733 21.7693ZM22.7691 8.76933L20.733 10.8054L17.1573 7.22974H24.3087L22.7691 8.76933ZM13.2127 8.76933L11.1766 10.8054L7.60092 7.22974H14.7523L13.2127 8.76933ZM6.61249 7.6488L8.43449 9.4708L9.97408 11.0104H4.36232C4.93625 9.77143 5.69693 8.63724 6.61249 7.6488ZM9.97408 12.0079L8.43449 13.5475L6.3984 15.5836L3.67907 12.8643C3.76106 12.5728 3.85216 12.2858 3.95237 12.0079H9.97408ZM6.3984 16.9911L8.43449 19.0272L9.97408 20.5668H3.92048C3.82483 20.2935 3.73828 20.0156 3.66085 19.7332L6.3984 16.9911ZM9.97408 21.5598L8.43449 23.0994L6.55783 24.9715C5.63772 23.9694 4.87703 22.817 4.31221 21.5598H9.97408ZM14.7523 26.338L13.2127 27.8776L12.4566 28.6337C10.8213 28.1645 9.31816 27.3765 8.02454 26.338H14.7523ZM17.1528 26.338H23.9534C22.6415 27.3856 21.1202 28.1782 19.4621 28.6474L17.1528 26.338ZM25.3836 25.0125L21.931 21.5598H27.6657C27.0918 22.8352 26.3174 24.0013 25.3836 25.0125ZM21.9355 20.5668L25.5066 16.9957L27.5427 19.0318L28.3034 19.7924C28.2305 20.0566 28.1485 20.3117 28.0574 20.5713H21.9355V20.5668ZM27.5427 13.5475L25.5066 15.5836L25.4338 15.5107L21.931 12.0079H28.0255C28.1212 12.2721 28.2032 12.5363 28.2806 12.8096L27.5427 13.5475ZM21.931 11.0149L25.3335 7.61236C26.2673 8.60991 27.0417 9.75777 27.6202 11.0149H21.931ZM17.1528 6.23675L19.3802 4.00936C21.0154 4.4603 22.5186 5.22554 23.8213 6.23675H17.1528ZM17.9909 3.99114L15.9548 6.02722L13.6818 3.75883C14.4289 3.62218 15.2032 3.54475 15.9912 3.54475C16.7565 3.54475 17.5081 3.61763 18.2369 3.74517L17.9909 3.99114ZM13.2127 4.69716L14.7523 6.23675H8.15663C9.4457 5.23465 10.9261 4.47397 12.5385 4.02302L13.2127 4.69716Z" fill="#F6F6F6"/>
<path d="M46.6603 0.814056H47.8058C49.9835 0.814056 51.5391 1.30901 52.4725 2.29892C53.4058 3.28882 53.8725 4.85853 53.8725 7.00804V11.2505H48.4421V7.30502C48.4421 6.20198 48.032 5.65046 47.2118 5.65046C46.3916 5.65046 45.9815 6.21612 45.9815 7.34744V8.06866C45.9815 9.48281 46.5613 10.8404 47.7209 12.1414L50.9452 15.7475C52.3028 17.2748 53.2078 18.6465 53.6603 19.8627C54.1412 21.0506 54.3816 22.3799 54.3816 23.8506V25.3355C54.3816 27.7961 53.8018 29.7193 52.6422 31.1052C51.5108 32.4628 49.7997 33.1416 47.5088 33.1416H46.4057C42.1067 33.1416 39.9572 30.9638 39.9572 26.6082V20.9233H45.5148V25.9718C45.5148 27.2446 45.9956 27.8809 46.9573 27.8809C47.8906 27.8809 48.3573 27.1173 48.3573 25.59V24.9961C48.3573 23.8082 48.2441 22.9173 48.0179 22.3233C47.8199 21.7011 47.3249 20.9516 46.533 20.0748L43.2663 16.4687C42.135 15.2526 41.3431 14.0222 40.8905 12.7778C40.4663 11.5333 40.2542 10.0909 40.2542 8.45048V7.09289C40.2542 5.0848 40.8198 3.54337 41.9512 2.46861C43.0825 1.36558 44.6522 0.814056 46.6603 0.814056ZM68.1135 1.19588L63.8711 20.3294V32.7598H58.2286V20.5415L53.5619 1.19588H59.2044L61.1135 12.396L63.0226 1.19588H68.1135ZM68.328 1.19588H73.6311L77.4917 17.3172V1.19588H82.4978V32.7598H77.7038L73.3341 15.4505V32.7598H68.328V1.19588ZM83.8544 1.19588H95.6484V6.7535H89.4969V13.6263H94.3333V19.3112H89.4969V27.0749H95.9454V32.7598H83.8544V1.19588ZM102.455 6.0747V14.0505H103.558C104.152 14.0505 104.562 13.9233 104.788 13.6687C105.014 13.3859 105.127 12.8768 105.127 12.1414V7.85654C105.127 7.14946 105.028 6.68279 104.83 6.45653C104.661 6.20198 104.293 6.0747 103.727 6.0747H102.455ZM102.455 19.2687V32.7598H96.8121V1.19588H105.721C109.172 1.19588 110.897 2.94943 110.897 6.45653V11.505C110.897 13.598 110.063 15.0121 108.394 15.7475C108.988 15.9738 109.539 16.398 110.049 17.0202C110.558 17.6142 110.812 18.4344 110.812 19.4809V30.2143C110.812 31.2042 110.968 31.982 111.279 32.5476V32.7598H105.636C105.297 32.3638 105.127 31.5577 105.127 30.3416V21.1354C105.127 20.4001 105.014 19.9051 104.788 19.6506C104.59 19.396 104.208 19.2687 103.642 19.2687H102.455ZM117.479 33.184H117.055C115.471 33.184 114.212 32.5901 113.279 31.4022C112.374 30.2143 111.921 28.7436 111.921 26.99V8.19593C111.921 6.04642 112.444 4.27873 113.491 2.89286C114.537 1.50699 116.206 0.814056 118.497 0.814056H119.643C120.972 0.814056 122.089 1.01204 122.994 1.408C123.899 1.80396 124.564 2.36962 124.988 3.10498C125.441 3.84034 125.752 4.60398 125.921 5.39591C126.091 6.18784 126.176 7.10703 126.176 8.15351V11.6323H120.661V8.11108C120.661 7.40401 120.548 6.89491 120.321 6.5838C120.123 6.27269 119.756 6.11713 119.218 6.11713C118.285 6.11713 117.818 6.78178 117.818 8.11108V25.6749C117.818 27.0324 118.327 27.7112 119.346 27.7112C120.449 27.7112 121 27.0607 121 25.7597V18.9718H118.921V13.6687H126.43V32.7598H122.994C122.711 31.5719 122.428 30.5678 122.146 29.7476C121.891 30.2001 121.679 30.5537 121.509 30.8082C121.368 31.0345 121.099 31.3739 120.703 31.8264C120.307 32.279 119.826 32.6184 119.261 32.8446C118.723 33.0709 118.129 33.184 117.479 33.184ZM140.318 1.19588L136.076 20.3294V32.7598H130.433V20.5415L125.767 1.19588H131.409L133.318 12.396L135.227 1.19588H140.318ZM149.889 33.184H149.465C147.881 33.184 146.622 32.5901 145.689 31.4022C144.784 30.2143 144.331 28.7436 144.331 26.99V8.19593C144.331 6.04642 144.855 4.27873 145.901 2.89286C146.947 1.50699 148.616 0.814056 150.907 0.814056H152.053C153.382 0.814056 154.499 1.01204 155.404 1.408C156.309 1.80396 156.974 2.36962 157.398 3.10498C157.851 3.84034 158.162 4.60398 158.331 5.39591C158.501 6.18784 158.586 7.10703 158.586 8.15351V11.6323H153.071V8.11108C153.071 7.40401 152.958 6.89491 152.731 6.5838C152.533 6.27269 152.166 6.11713 151.628 6.11713C150.695 6.11713 150.228 6.78178 150.228 8.11108V25.6749C150.228 27.0324 150.737 27.7112 151.756 27.7112C152.859 27.7112 153.41 27.0607 153.41 25.7597V18.9718H151.331V13.6687H158.84V32.7598H155.404C155.121 31.5719 154.838 30.5678 154.556 29.7476C154.301 30.2001 154.089 30.5537 153.919 30.8082C153.778 31.0345 153.509 31.3739 153.113 31.8264C152.717 32.279 152.236 32.6184 151.671 32.8446C151.133 33.0709 150.539 33.184 149.889 33.184ZM160.068 1.19588H165.71V27.0749H171.692V32.7598H160.068V1.19588ZM187 8.8323V25.5476C187 27.8951 186.406 29.7618 185.218 31.1476C184.03 32.5335 182.39 33.2264 180.297 33.2264H179.024C176.79 33.2264 175.093 32.5759 173.933 31.2749C172.774 29.9456 172.194 28.0365 172.194 25.5476V8.87473C172.194 3.50095 174.457 0.814056 178.982 0.814056H180.255C184.752 0.814056 187 3.4868 187 8.8323ZM181.103 25.7173V8.40806C181.103 7.02219 180.608 6.32925 179.618 6.32925C178.6 6.32925 178.091 7.02219 178.091 8.40806V25.7173C178.091 26.9617 178.614 27.584 179.661 27.584C180.622 27.584 181.103 26.9617 181.103 25.7173ZM188.221 32.7598V1.19588H196.748C198.671 1.19588 200.057 1.62012 200.905 2.46861C201.782 3.31711 202.221 4.77368 202.221 6.83835V11.0384C202.221 12.2263 201.938 13.2162 201.372 14.0081C200.835 14.7717 200.227 15.2526 199.548 15.4505C201.641 16.0445 202.687 17.699 202.687 20.4142V25.6749C202.687 28.1355 202.263 29.9315 201.415 31.0628C200.566 32.1941 199.265 32.7598 197.511 32.7598H188.221ZM195.221 18.6324H193.863V27.7537H195.433C195.97 27.7537 196.338 27.6264 196.536 27.3718C196.762 27.089 196.875 26.5234 196.875 25.6749V20.5415C196.875 19.8627 196.748 19.3819 196.493 19.099C196.267 18.7879 195.843 18.6324 195.221 18.6324ZM195.221 6.03228H193.863V13.5414H195.136C195.645 13.5414 196.027 13.4142 196.281 13.1596C196.536 12.8768 196.663 12.3818 196.663 11.6747V7.72926C196.663 6.59794 196.182 6.03228 195.221 6.03228ZM212.15 32.7598L211.556 27.4567H208.162L207.653 32.7598H202.647L206.635 1.19588H213.338L217.623 32.7598H212.15ZM209.817 11.2081L208.714 22.0263H211.004L209.817 11.2081ZM217.989 1.19588H223.631V27.0749H229.613V32.7598H217.989V1.19588ZM233.824 1.19588H247.527V6.7535H243.497V32.7598H237.854V6.7535H233.824V1.19588ZM253.97 6.0747V14.0505H255.073C255.667 14.0505 256.077 13.9233 256.303 13.6687C256.53 13.3859 256.643 12.8768 256.643 12.1414V7.85654C256.643 7.14946 256.544 6.68279 256.346 6.45653C256.176 6.20198 255.808 6.0747 255.243 6.0747H253.97ZM253.97 19.2687V32.7598H248.328V1.19588H257.237C260.687 1.19588 262.412 2.94943 262.412 6.45653V11.505C262.412 13.598 261.578 15.0121 259.909 15.7475C260.503 15.9738 261.055 16.398 261.564 17.0202C262.073 17.6142 262.328 18.4344 262.328 19.4809V30.2143C262.328 31.2042 262.483 31.982 262.794 32.5476V32.7598H257.152C256.812 32.3638 256.643 31.5577 256.643 30.3416V21.1354C256.643 20.4001 256.53 19.9051 256.303 19.6506C256.105 19.396 255.724 19.2687 255.158 19.2687H253.97ZM272.298 32.7598L271.704 27.4567H268.31L267.801 32.7598H262.795L266.783 1.19588H273.486L277.771 32.7598H272.298ZM269.965 11.2081L268.862 22.0263H271.153L269.965 11.2081ZM278.137 32.7598V1.19588H286.156C288.305 1.19588 289.861 1.73326 290.822 2.80801C291.812 3.85448 292.307 5.56561 292.307 7.94138V25.7597C292.307 28.1072 291.826 29.8608 290.865 31.0204C289.931 32.18 288.362 32.7598 286.156 32.7598H278.137ZM283.78 6.20198V27.4991H284.883C285.505 27.4991 285.929 27.3294 286.156 26.99C286.41 26.6506 286.537 26.085 286.537 25.293V8.32321C286.537 7.55956 286.424 7.02219 286.198 6.71107C285.972 6.37168 285.59 6.20198 285.053 6.20198H283.78ZM293.581 1.19588H305.375V6.7535H299.223V13.6263H304.06V19.3112H299.223V27.0749H305.672V32.7598H293.581V1.19588Z" fill="#0D2EC8"/>
</svg>
