<svg width="887" height="836" viewBox="0 0 887 836" fill="none" xmlns="http://www.w3.org/2000/svg">
<g filter="url(#filter0_ii_173_4019)">
<path d="M0.696289 500.584C0.696289 776.359 225.084 1000.75 500.859 1000.75C776.634 1000.75 1001.02 776.359 1001.02 500.584C1001.02 224.809 776.634 0.421143 500.859 0.421143C225.084 0.421143 0.696289 224.809 0.696289 500.584ZM964.835 500.584C964.835 529.169 962.026 557.094 957.069 584.357L871.643 498.931L871.809 498.766L871.643 498.601L956.574 413.671C962.026 441.761 964.835 470.842 964.835 500.584ZM500.859 964.56C471.117 964.56 442.036 961.586 413.946 956.298L458.889 911.52V911.685L499.702 870.873L573.562 944.732L585.624 956.794C558.03 961.751 529.775 964.56 500.859 964.56ZM36.7173 500.584C36.7173 471.668 39.5262 443.413 44.6485 415.984L53.5711 424.907L127.431 498.766L53.5711 572.626L44.1528 582.044C39.361 555.607 36.7173 528.343 36.7173 500.584ZM820.751 498.766L494.91 824.607V683.167L679.477 498.601L494.58 314.035V176.23L820.751 498.766ZM628.254 498.601L490.614 636.241L352.975 498.601L490.614 360.961L628.254 498.601ZM196.498 827.251L326.207 697.542L400.066 771.402L455.915 827.251H196.498ZM672.867 697.542L746.727 771.237L802.576 827.086L543.324 827.086L672.867 697.542ZM746.727 225.965L672.867 299.825L543.159 170.116L802.576 170.116L746.727 225.965ZM400.066 225.965L326.207 299.825L196.498 170.116H455.915L400.066 225.965ZM160.643 185.318L226.736 251.411L282.585 307.26H79.0171C99.8365 262.317 127.431 221.173 160.643 185.318ZM282.585 343.446L226.736 399.295L152.877 473.155L54.232 374.51C57.2062 363.935 60.5109 353.526 64.1461 343.446H282.585ZM152.877 524.212L226.736 598.072L282.585 653.921H62.9894C59.5195 644.007 56.3801 633.927 53.5711 623.683L152.877 524.212ZM282.585 689.942L226.736 745.791L158.66 813.702C125.283 777.35 97.6885 735.546 77.1995 689.942H282.585ZM455.915 863.272L400.066 919.121L372.638 946.55C313.319 929.531 258.791 900.945 211.865 863.272H455.915ZM542.993 863.272L789.688 863.272C742.1 901.276 686.912 930.026 626.767 947.045L542.993 863.272ZM841.571 815.189L716.324 689.942L924.353 689.942C903.534 736.207 875.444 778.507 841.571 815.189ZM716.489 653.921L846.032 524.377L919.892 598.237L947.486 625.831C944.842 635.414 941.868 644.668 938.563 654.086L716.489 654.086V653.921ZM919.892 399.295L846.032 473.155L843.388 470.511L716.324 343.446H937.406C940.876 353.03 943.851 362.614 946.66 372.528L919.892 399.295ZM716.324 307.425L839.753 183.996C873.626 220.182 901.716 261.821 922.701 307.425H716.324ZM542.993 134.095L623.793 53.2959C683.112 69.6541 737.639 97.4134 784.896 134.095L542.993 134.095ZM573.396 52.635L499.537 126.495L417.085 44.2081C444.184 39.2511 472.273 36.4421 500.859 36.4421C528.618 36.4421 555.882 39.0858 582.319 43.7124L573.396 52.635ZM400.066 78.2462L455.915 134.095H216.657C263.418 97.7438 317.119 70.1498 375.612 53.7916L400.066 78.2462Z" fill="#0D2EC8"/>
</g>
<defs>
<filter id="filter0_ii_173_4019" x="-3.30371" y="0.421143" width="1006.33" height="1000.33" filterUnits="userSpaceOnUse" color-interpolation-filters="sRGB">
<feFlood flood-opacity="0" result="BackgroundImageFix"/>
<feBlend mode="normal" in="SourceGraphic" in2="BackgroundImageFix" result="shape"/>
<feColorMatrix in="SourceAlpha" type="matrix" values="0 0 0 0 0 0 0 0 0 0 0 0 0 0 0 0 0 0 127 0" result="hardAlpha"/>
<feOffset dx="2"/>
<feGaussianBlur stdDeviation="3.5"/>
<feComposite in2="hardAlpha" operator="arithmetic" k2="-1" k3="1"/>
<feColorMatrix type="matrix" values="0 0 0 0 0.06 0 0 0 0 0.155294 0 0 0 0 0.6 0 0 0 1 0"/>
<feBlend mode="normal" in2="shape" result="effect1_innerShadow_173_4019"/>
<feColorMatrix in="SourceAlpha" type="matrix" values="0 0 0 0 0 0 0 0 0 0 0 0 0 0 0 0 0 0 127 0" result="hardAlpha"/>
<feOffset dx="-4"/>
<feGaussianBlur stdDeviation="6"/>
<feComposite in2="hardAlpha" operator="arithmetic" k2="-1" k3="1"/>
<feColorMatrix type="matrix" values="0 0 0 0 0.411285 0 0 0 0 0.507823 0 0 0 0 0.958333 0 0 0 1 0"/>
<feBlend mode="normal" in2="effect1_innerShadow_173_4019" result="effect2_innerShadow_173_4019"/>
</filter>
</defs>
</svg>
